<svg id="knh_logo_svg" xmlns="http://www.w3.org/2000/svg" width="122" height="104.883" viewBox="0 0 122 104.883">
  <path id="Path_24" data-name="Path 24" d="M248.3,0V104.883h34.968V69.936h34.947V34.968H283.268V0Z" transform="translate(-196.215)" fill="#0050a0"/>
  <path id="Path_25" data-name="Path 25" d="M36.583,192.107v.671H38.6v1.972H36.583v5.5H33.856v-5.5H32.367v-1.972h1.489v-.755c0-1.3.294-2.706,2.853-2.706a14.283,14.283,0,0,1,2.265.168v1.867a8.112,8.112,0,0,0-1.342-.1c-.545-.021-1.049.021-1.049.86m-31.4-16.32-1.72-2.979-.776.881v2.1H0V164.921H2.685V170.9l2.286-2.979H7.887l-2.58,3.188,2.664,4.678Zm20.725.1a2.7,2.7,0,0,0,2.349-1.3,3.4,3.4,0,0,0,.168,1.175h2.79a5.138,5.138,0,0,1-.231-1.909V164.9H28.255v3.965a2.589,2.589,0,0,0-2.328-1.112c-1.783,0-3,1.468-3,4.153s1.217,3.986,2.979,3.986m1.07-2.014c-1.007,0-1.3-.86-1.3-1.951,0-1.217.378-1.909,1.28-1.909a1.765,1.765,0,0,1,1.322.566v2.643a1.948,1.948,0,0,1-1.3.65m-13.026-5.957h2.727v1.217a3.113,3.113,0,0,1,2.643-1.384,2.048,2.048,0,0,1,2.265,2.286v5.727H18.858V170.92c0-.587-.21-.923-.755-.923a2.319,2.319,0,0,0-1.447.629v5.139H13.928v-7.845Zm-4.678,7.866H12v-7.866H9.272Zm0-10.866H12v1.951H9.272Zm14.054,35.325h2.727v-7.866H23.326Zm0-10.866h2.727v1.951H23.326ZM13.74,200.246h2.727v-5.139a2.319,2.319,0,0,1,1.447-.629c.545,0,.734.336.734.923v4.846h2.727v-5.727a2.058,2.058,0,0,0-2.265-2.286,3.113,3.113,0,0,0-2.643,1.384V189.38H13.74Zm25.654-3.923a3.942,3.942,0,0,1,4.111-4.132c1.594,0,3.755.65,3.755,4.468v.42H42.142a1.461,1.461,0,0,0,1.657,1.468,4.332,4.332,0,0,0,2.307-.8l1.007,1.657a5.993,5.993,0,0,1-3.5,1.028c-2.161,0-4.216-.965-4.216-4.111m5.412-.818c-.126-1.007-.566-1.384-1.322-1.384-.629,0-1.154.4-1.322,1.384Zm-16.551,4.741h2.727V189.38H28.255ZM42.1,184.912v-3.587H40.82v-1.972H42.1v-2.245h2.727v2.245h2.014v1.972H44.827V184.3c0,.839.21,1.07,1.049,1.07a3.811,3.811,0,0,0,.776-.084V187.2a13.18,13.18,0,0,1-1.7.126c-2.559,0-2.853-.923-2.853-2.412m-5.873,2.454c1.888,0,4.132-.9,4.132-4.069,0-3.209-2.244-4.09-4.132-4.09s-4.132.881-4.132,4.09c-.021,3.167,2.224,4.069,4.132,4.069m0-1.888c-1.07,0-1.405-.965-1.405-2.161,0-1.3.4-2.14,1.405-2.14,1.049,0,1.405.944,1.405,2.14,0,1.3-.4,2.161-1.405,2.161m-12.9-6.125h2.727v1.217a3.113,3.113,0,0,1,2.643-1.384,2.042,2.042,0,0,1,2.265,2.265v5.727H28.235v-4.846c0-.587-.21-.923-.755-.923a2.319,2.319,0,0,0-1.447.629v5.139H23.305v-7.824ZM42.1,175.787h2.727v-4.8a2.61,2.61,0,0,1,1.867-.839,5.614,5.614,0,0,1,.692.063v-2.412h-.042a2.807,2.807,0,0,0-2.517,1.405h-.021v-1.259H42.079v7.845Zm-9.607-3.923a3.942,3.942,0,0,1,4.111-4.132c1.594,0,3.755.65,3.755,4.468v.42H35.241a1.461,1.461,0,0,0,1.657,1.468,4.332,4.332,0,0,0,2.307-.8l1.007,1.657a5.993,5.993,0,0,1-3.5,1.028c-2.161,0-4.216-.944-4.216-4.111m5.433-.818c-.126-1.007-.566-1.384-1.322-1.384-.629,0-1.154.4-1.322,1.384Z" transform="translate(0 -130.31)" fill="#030000"/>
</svg>
