<svg xmlns="http://www.w3.org/2000/svg" xmlns:xlink="http://www.w3.org/1999/xlink" width="153.328" height="153.328" viewBox="0 0 153.328 153.328">
  <defs>
    <clipPath id="clip-path">
      <rect id="Rectangle_17" data-name="Rectangle 17" width="153.328" height="153.328" fill="#fff"/>
    </clipPath>
  </defs>
  <g id="Group_48" data-name="Group 48" clip-path="url(#clip-path)">
    <path id="Path_15" data-name="Path 15" d="M76.53,153.328h-.005C34.481,153.177.153,118.909,0,76.94A76.731,76.731,0,0,1,76.525,0h.246a76.664,76.664,0,0,1-.241,153.328m0-1.423A75.241,75.241,0,0,0,76.771,1.423h-.243a75.307,75.307,0,0,0-75.1,75.51c.149,41.191,33.841,74.822,75.1,74.971Z" transform="translate(0 0.001)" fill="#fff"/>
    <path id="Path_16" data-name="Path 16" d="M31.441,52.866H29.124c-4.193,12.853-7.037,19.655-9.633,22.718V76.6H40.5V75.584c-7.365-1.348-10.755-10.775-9.057-22.718" transform="translate(13.15 35.667)" fill="#fff"/>
    <path id="Path_17" data-name="Path 17" d="M53.351,95.725,33.514,31.132c-1.221-3.917-2.085-4.934-3.967-5.6V24.519H65.862v1.018c-4.679.507-5.8,2.085-1.474,16.174l8.747,28.737c1.425,4.781,2.849,9.917,4.12,15.308h1.018c1.423-5.391,2.951-10.527,4.12-14.394L87.071,56c4.679-15.41,1.578-28.838-7.323-30.465V24.519h21.005v1.018C97.65,29.2,94.192,38.2,88.5,56.512L76.543,95.725Z" transform="translate(19.934 16.542)" fill="#fff"/>
  </g>
</svg>
