<svg xmlns="http://www.w3.org/2000/svg" xmlns:xlink="http://www.w3.org/1999/xlink" width="89.258" height="143.125" viewBox="0 0 89.258 143.125">
  <defs>
    <clipPath id="clip-path">
      <rect width="89.258" height="143.125" fill="none"/>
    </clipPath>
    <clipPath id="clip-path-2">
      <rect id="Rectangle_25" data-name="Rectangle 25" width="88.396" height="143.125"/>
    </clipPath>
  </defs>
  <g id="uno_logo" clip-path="url(#clip-path)">
    <g id="uno_logo-2" data-name="uno_logo" transform="translate(3 7.4)">
      <rect id="Rectangle_24" data-name="Rectangle 24" width="88.578" height="137.866" transform="translate(-2.32 -5.722)" fill="#0070ba"/>
      <g id="Group_71" data-name="Group 71" transform="translate(-3 -7.4)">
        <g id="Group_70" data-name="Group 70" transform="translate(0 0)" clip-path="url(#clip-path-2)">
          <path id="Path_31" data-name="Path 31" d="M51,326.3h4.6v12.651c0,2.97,1.632,5.01,4.942,5.01,3.265,0,4.9-2.04,4.9-5.01V326.3h4.6v12.787c0,5.305-3.038,8.91-9.5,8.91-6.507,0-9.545-3.65-9.545-8.887Z" transform="translate(-38.757 -250.645)" fill="#fff"/>
        </g>
      </g>
      <path id="Path_32" data-name="Path 32" d="M152.734,333.305v14.306H148.2V326.3h4.648l9.885,13.807V326.3h4.534v21.311h-4.376Z" transform="translate(-116.921 -258.045)" fill="#fff"/>
      <g id="Group_73" data-name="Group 73" transform="translate(-3 -7.4)">
        <g id="Group_72" data-name="Group 72" transform="translate(0 0)" clip-path="url(#clip-path-2)">
          <path id="Path_33" data-name="Path 33" d="M254.032,328.813c-3.922,0-6.461,2.993-6.461,7.005s2.517,7.005,6.461,7.005,6.484-3.038,6.484-7.005-2.562-7.005-6.484-7.005m0-4.013c6.461,0,11.154,4.6,11.154,11.018s-4.693,11.018-11.154,11.018A10.693,10.693,0,0,1,242.9,335.8c0-6.439,4.716-11,11.132-11" transform="translate(-187.151 -249.485)" fill="#fff"/>
        </g>
      </g>
      <path id="Path_34" data-name="Path 34" d="M34.7,449.4h5.056v1.678H36.718v.771h2.97v1.678h-2.97v2.517H34.7Z" transform="translate(-29.153 -353.236)" fill="#fff"/>
      <path id="Path_35" data-name="Path 35" d="M60.6,449.4h1.791v6.643H60.6Z" transform="translate(-49.181 -353.236)" fill="#fff"/>
      <path id="Path_36" data-name="Path 36" d="M75.242,453.975a2.171,2.171,0,0,1-1.655.657,1.418,1.418,0,0,1-1.587-1.5V449.69h1.814v2.675c0,.5.249.68.7.68a.885.885,0,0,0,.748-.385v-2.97h1.791V454.5H75.242Zm-2.675-5.668a.885.885,0,0,1,.884-.884.9.9,0,0,1,.884.884.884.884,0,0,1-1.768.023h0Zm2.154,0a.9.9,0,1,1,.907.884h0a.917.917,0,0,1-.907-.862v-.023Z" transform="translate(-57.996 -351.69)" fill="#fff"/>
      <path id="Path_37" data-name="Path 37" d="M99,457a2.412,2.412,0,0,1,2.04.907L99.882,459a.892.892,0,0,0-.816-.408.906.906,0,0,0-.952.839h0v.113a.911.911,0,0,0,.862.952h.091a.991.991,0,0,0,.816-.431l1.156,1.088a2.412,2.412,0,0,1-2.04.907A2.533,2.533,0,1,1,99,457Z" transform="translate(-76.787 -359.113)" fill="#fff"/>
      <path id="Path_38" data-name="Path 38" d="M123.165,453.468c0-.5-.272-.68-.7-.68a.956.956,0,0,0-.771.385v2.97H119.9V449.5h1.791v2.38a2.191,2.191,0,0,1,1.655-.68,1.426,1.426,0,0,1,1.61,1.5v3.446h-1.791Z" transform="translate(-95.037 -353.314)" fill="#fff"/>
      <path id="Path_39" data-name="Path 39" d="M145.493,456.438v-1.859H144.7v-1.564h.794V451.7h1.791v1.315h.975v1.564h-.975v1.338a.409.409,0,0,0,.363.453h.023a.665.665,0,0,0,.363-.091l.317,1.36a1.847,1.847,0,0,1-1.224.317C146.083,457.957,145.493,457.459,145.493,456.438Z" transform="translate(-114.214 -355.015)" fill="#fff"/>
      <path id="Path_40" data-name="Path 40" d="M164.3,449.4h1.791v6.643H164.3Z" transform="translate(-129.371 -353.236)" fill="#fff"/>
      <path id="Path_41" data-name="Path 41" d="M177,447.5a1.009,1.009,0,1,1,1.02,1.02A1.046,1.046,0,0,1,177,447.5Zm.113,1.5H178.9V453.8h-1.791Z" transform="translate(-139.191 -350.994)" fill="#fff"/>
      <path id="Path_42" data-name="Path 42" d="M193.965,459.262c0-.5-.272-.68-.7-.68a.956.956,0,0,0-.771.385v2.97H190.7v-4.806h1.791v.544a2.191,2.191,0,0,1,1.655-.68,1.442,1.442,0,0,1,1.61,1.519v3.423h-1.791v-2.675Z" transform="translate(-149.785 -359.109)" fill="#fff"/>
      <path id="Path_43" data-name="Path 43" d="M216.83,461.97a1.962,1.962,0,0,0,1.428.521.978.978,0,0,0,1.111-1v-.249a1.788,1.788,0,0,1-1.36.657c-1.156,0-2.108-.748-2.108-2.4a2.1,2.1,0,0,1,2.108-2.4,1.7,1.7,0,0,1,1.36.635v-.5h1.791v4.308c0,2.086-1.723,2.471-2.925,2.471a3.382,3.382,0,0,1-2.2-.725Zm2.562-2.993a1.126,1.126,0,0,0-.748-.317c-.5,0-.907.227-.907.816s.408.816.907.816a1.067,1.067,0,0,0,.748-.317Z" transform="translate(-169.272 -359.186)" fill="#fff"/>
      <path id="Path_44" data-name="Path 44" d="M242.448,460.206a3.448,3.448,0,0,0,1.746.612c.363,0,.476-.091.476-.227s-.227-.227-.68-.272c-.816-.113-2.063-.249-2.063-1.564,0-.862.771-1.655,2.154-1.655a3.745,3.745,0,0,1,2.086.612l-.658,1.156a2.327,2.327,0,0,0-1.428-.5c-.249,0-.453.068-.453.2s.136.2.612.272c.816.113,2.108.295,2.108,1.632,0,.952-.862,1.655-2.29,1.655a4.159,4.159,0,0,1-2.358-.725Z" transform="translate(-189.223 -359.191)" fill="#fff"/>
      <path id="Path_45" data-name="Path 45" d="M268.465,453.468c0-.5-.272-.68-.7-.68a.956.956,0,0,0-.771.385v2.97H265.2V449.5h1.791v2.38a2.191,2.191,0,0,1,1.655-.68,1.426,1.426,0,0,1,1.61,1.5v3.446h-1.791Z" transform="translate(-207.395 -353.314)" fill="#fff"/>
      <path id="Path_46" data-name="Path 46" d="M291.4,447.5a1.009,1.009,0,1,1,1.02,1.02,1.046,1.046,0,0,1-1.02-1.02Zm.113,1.5H293.3V453.8h-1.791Z" transform="translate(-227.655 -350.994)" fill="#fff"/>
      <path id="Path_47" data-name="Path 47" d="M305.1,449.4h1.791v6.643H305.1Z" transform="translate(-238.249 -353.236)" fill="#fff"/>
      <path id="Path_48" data-name="Path 48" d="M317.194,452.414H316.4V450.85h.793v-.227a1.724,1.724,0,0,1,1.836-1.723,2.347,2.347,0,0,1,1.111.249l-.317,1.2a.764.764,0,0,0-.385-.113.429.429,0,0,0-.453.408v.2h.975v1.564h-.975v3.265h-1.791Z" transform="translate(-246.987 -352.85)" fill="#fff"/>
      <path id="Path_49" data-name="Path 49" d="M336.707,457a2.482,2.482,0,0,1,2.494,2.721v.363h-3.265A1.017,1.017,0,0,0,337,460.7a1.875,1.875,0,0,0,1.088-.34l.748,1.111a3.41,3.41,0,0,1-2.063.589,2.531,2.531,0,1,1-.068-5.056Zm-.793,1.95H337.5a.839.839,0,0,0-1.587,0Z" transform="translate(-260.674 -359.113)" fill="#fff"/>
      <path id="Path_50" data-name="Path 50" d="M73.9,499.4h2.63a3.328,3.328,0,1,1,0,6.643H73.9Zm2.63,5.418a2,2,0,0,0,2.086-1.9h0v-.181a1.951,1.951,0,0,0-2.086-2.086h-1.2v4.172Z" transform="translate(-59.466 -391.901)" fill="#fff"/>
      <path id="Path_51" data-name="Path 51" d="M105.666,507a2.435,2.435,0,0,1,2.426,2.653v.272H104.51a1.281,1.281,0,0,0,1.383,1.111,2.061,2.061,0,0,0,1.292-.476l.567.816a3.173,3.173,0,0,1-2,.68,2.53,2.53,0,0,1-.181-5.056Zm-1.179,2.086h2.381a1.114,1.114,0,0,0-1.156-1.066h-.023A1.139,1.139,0,0,0,104.488,509.086Z" transform="translate(-82.118 -397.778)" fill="#fff"/>
      <path id="Path_52" data-name="Path 52" d="M131.165,511.717a2.261,2.261,0,0,1-1.7.726,1.378,1.378,0,0,1-1.564-1.519V507.5h1.27v2.925c0,.68.34.884.884.884a1.353,1.353,0,0,0,1.088-.544V507.5h1.27v4.806h-1.27v-.589Z" transform="translate(-101.223 -398.164)" fill="#fff"/>
      <path id="Path_53" data-name="Path 53" d="M151.794,506.642v-2.517H151v-1.111h.794V501.7h1.27v1.315h.975v1.111h-.975V506.3c0,.295.159.521.431.521a.7.7,0,0,0,.431-.136l.272.952a1.605,1.605,0,0,1-1.066.317A1.191,1.191,0,0,1,151.794,506.642Z" transform="translate(-119.086 -393.679)" fill="#fff"/>
      <path id="Path_54" data-name="Path 54" d="M167.844,510.423a2.675,2.675,0,0,0,1.678.658c.544,0,.816-.181.816-.5,0-.34-.431-.453-.975-.567-.839-.159-1.9-.363-1.9-1.5,0-.816.7-1.519,1.972-1.519a3.209,3.209,0,0,1,1.95.658l-.5.862a2.1,2.1,0,0,0-1.428-.567c-.453,0-.748.181-.748.453s.385.408.907.521c.816.159,1.927.385,1.927,1.587,0,.884-.748,1.542-2.086,1.542a3.242,3.242,0,0,1-2.154-.748Z" transform="translate(-131.69 -397.778)" fill="#fff"/>
      <path id="Path_55" data-name="Path 55" d="M190.462,507a2.242,2.242,0,0,1,1.9.862l-.816.771a1.155,1.155,0,0,0-1.02-.521,1.409,1.409,0,0,0,0,2.811,1.208,1.208,0,0,0,1.02-.521l.816.771a2.194,2.194,0,0,1-1.9.884,2.528,2.528,0,1,1,0-5.056Z" transform="translate(-147.62 -397.778)" fill="#fff"/>
      <path id="Path_56" data-name="Path 56" d="M213.565,503.218c0-.68-.34-.884-.907-.884a1.374,1.374,0,0,0-1.088.567v3.242H210.3V499.5h1.27v2.471a2.281,2.281,0,0,1,1.7-.748,1.378,1.378,0,0,1,1.564,1.519v3.423h-1.27Z" transform="translate(-164.942 -391.978)" fill="#fff"/>
      <path id="Path_57" data-name="Path 57" d="M235,499.4h1.27v6.643H235Z" transform="translate(-184.042 -391.901)" fill="#fff"/>
      <path id="Path_58" data-name="Path 58" d="M248,511.366a2,2,0,0,1-1.519.612,1.605,1.605,0,0,1-1.678-1.587,1.527,1.527,0,0,1,1.678-1.542,1.946,1.946,0,0,1,1.519.589v-.68c0-.5-.431-.816-1.066-.816a2.05,2.05,0,0,0-1.406.567l-.476-.839a3.265,3.265,0,0,1,2.108-.771c1.088,0,2.108.431,2.108,1.814v3.129H248Zm0-1.247a1.231,1.231,0,0,0-1.02-.408c-.5,0-.907.249-.907.726s.408.7.907.7a1.3,1.3,0,0,0,1.02-.408Z" transform="translate(-191.62 -397.7)" fill="#fff"/>
      <path id="Path_59" data-name="Path 59" d="M273.265,509.018a.788.788,0,0,0-.884-.907,1.314,1.314,0,0,0-1.088.567v3.242H270v-4.806h1.27v.635a2.269,2.269,0,0,1,1.678-.748,1.394,1.394,0,0,1,1.564,1.542v3.4h-1.27Z" transform="translate(-211.107 -397.778)" fill="#fff"/>
      <path id="Path_60" data-name="Path 60" d="M297.727,505.531a1.913,1.913,0,0,1-1.5.726c-1.224,0-2.131-.907-2.131-2.517s.907-2.539,2.131-2.539a1.868,1.868,0,0,1,1.5.748V499.5H299v6.643h-1.27Zm0-2.653a1.353,1.353,0,0,0-1.088-.544,1.419,1.419,0,0,0,0,2.811,1.353,1.353,0,0,0,1.088-.544Z" transform="translate(-229.743 -391.978)" fill="#fff"/>
      <path id="Path_61" data-name="Path 61" d="M40.816,551.961H40V550.85h.794v-.272a1.559,1.559,0,0,1,1.632-1.678,2.046,2.046,0,0,1,.907.2l-.272.907a.641.641,0,0,0-.408-.091c-.363,0-.589.249-.589.7v.249h.975v1.111h-.952v3.7h-1.27Z" transform="translate(-33.251 -430.178)" fill="#fff"/>
      <path id="Path_62" data-name="Path 62" d="M59.965,554.68a2.215,2.215,0,0,1-1.7.725,1.378,1.378,0,0,1-1.564-1.519v-3.423h1.27v2.925c0,.68.34.884.884.884a1.353,1.353,0,0,0,1.088-.544v-3.265h1.27v4.806h-1.27v-.589Zm-2.721-5.6a.68.68,0,1,1,.68.68.682.682,0,0,1-.68-.68Zm2.108,0a.68.68,0,1,1,.68.68.682.682,0,0,1-.68-.68Z" transform="translate(-46.165 -429.792)" fill="#fff"/>
      <path id="Path_63" data-name="Path 63" d="M82.2,557.113h1.27v.657A2.049,2.049,0,0,1,85.011,557v1.247a1.752,1.752,0,0,0-.34-.045,1.568,1.568,0,0,0-1.179.544v3.174h-1.27v-4.806Z" transform="translate(-65.884 -436.442)" fill="#fff"/>
      <path id="Path_64" data-name="Path 64" d="M111.527,555.531a1.913,1.913,0,0,1-1.5.726c-1.224,0-2.131-.907-2.131-2.517s.907-2.539,2.131-2.539a1.868,1.868,0,0,1,1.5.748V549.5h1.27v6.643h-1.27Zm0-2.653a1.353,1.353,0,0,0-1.088-.544,1.419,1.419,0,0,0,0,2.811,1.353,1.353,0,0,0,1.088-.544Z" transform="translate(-85.757 -430.642)" fill="#fff"/>
      <path id="Path_65" data-name="Path 65" d="M136.112,557a2.418,2.418,0,0,1,2.4,2.653v.272h-3.582a1.3,1.3,0,0,0,1.383,1.111,2.061,2.061,0,0,0,1.292-.476l.567.816a3.173,3.173,0,0,1-2,.68,2.53,2.53,0,0,1-.2-5.056Zm-1.179,2.086h2.381a1.114,1.114,0,0,0-1.156-1.066h-.023A1.139,1.139,0,0,0,134.933,559.086Z" transform="translate(-105.626 -436.442)" fill="#fff"/>
      <path id="Path_66" data-name="Path 66" d="M162.742,559.018a.788.788,0,0,0-.884-.907,1.374,1.374,0,0,0-1.088.567v3.242H159.5v-4.806h1.27v.635a2.269,2.269,0,0,1,1.678-.748,1.394,1.394,0,0,1,1.564,1.542v3.4h-1.27Z" transform="translate(-125.659 -436.442)" fill="#fff"/>
      <path id="Path_67" data-name="Path 67" d="M196.145,549.4h1.428v3.945a1.414,1.414,0,0,0,1.542,1.564,1.4,1.4,0,0,0,1.519-1.564V549.4h1.428v3.99c0,1.655-.952,2.789-2.97,2.789s-2.993-1.134-2.993-2.766V549.4Z" transform="translate(-153.961 -430.565)" fill="#fff"/>
      <path id="Path_68" data-name="Path 68" d="M230.606,551.677v4.466H229.2V549.5h1.451l3.083,4.308V549.5h1.406v6.643h-1.36Z" transform="translate(-179.557 -430.642)" fill="#fff"/>
      <path id="Path_69" data-name="Path 69" d="M266.757,553.354h-3.151v2.789H262.2V549.5h1.406v2.607h3.151V549.5h1.428v6.643h-1.428Z" transform="translate(-205.075 -430.642)" fill="#fff"/>
      <path id="Path_70" data-name="Path 70" d="M292.9,552.338a3.372,3.372,0,0,1,3.491-3.446,3.066,3.066,0,0,1,2.834,1.632l-1.224.589a1.835,1.835,0,0,0-1.61-.975,2.181,2.181,0,0,0,0,4.353,1.793,1.793,0,0,0,1.61-.975l1.224.589a3.09,3.09,0,0,1-2.834,1.632A3.3,3.3,0,0,1,292.9,552.338Z" transform="translate(-228.815 -430.171)" fill="#fff"/>
      <path id="Path_71" data-name="Path 71" d="M327.049,553.762h-1.043v2.38H324.6V549.5h3.106a2.084,2.084,0,0,1,2.244,2.154,1.907,1.907,0,0,1-1.451,1.972l1.5,2.539h-1.632Zm.453-3.061h-1.5v1.836h1.5a.92.92,0,1,0,.045-1.836Z" transform="translate(-253.328 -430.642)" fill="#fff"/>
      <path id="Path_72" data-name="Path 72" d="M180.942,102.547c.748,0,.657-.431.657-1.224V97.469c0-.794-.068-1.043.385-1.043,1.587,0,2.018-.159,2.018-1.564V80.533c0-3.9-2.766-3.265-3.537-4.693-1.111-1.927,2.063-1.927.907-6.1a2.751,2.751,0,0,0-4.942,0c-1.156,4.172,2.04,4.172.907,6.1-.771,1.428-3.537.771-3.537,4.693V94.862c0,1.406.431,1.564,2.018,1.564.453,0,.385.249.385,1.043v3.854c0,.794-.091,1.224.657,1.224Z" transform="translate(-136.717 -58.46)" fill="#fff"/>
      <path id="Path_73" data-name="Path 73" d="M120.884,42.212c-1.406,1.519-3.627,5.01-2.176,7.912,2.97,1.156,2.721-9.363,6.416-9.182,1.814,1.678-.544,6.643-1.27,8.819-.907,2.7-1.632,8.32-3.355,11.041-1.451,2.29-.363,9.431-.816,11.88-1.224,1.224-4.557.363-5.963.136,0-2.811-.363-5.033-.816-9.545-.045-.93-1-14.827-.227-16.528,1.587-3.491,10.27-10.18,11.449-11.449,1.043-1.134,4.738-4.9,6.144-4.9,1,.68.408,2.267.181,2.9C129.045,36.816,122.947,40.262,120.884,42.212Z" transform="translate(-89.219 -29.23)" fill="#fff"/>
      <path id="Path_74" data-name="Path 74" d="M209.483,42.289c1.36,1.519,3.6,5.01,2.176,7.912-2.993,1.156-2.766-9.363-6.439-9.182-1.768,1.678.589,6.643,1.315,8.819.907,2.7,1.632,8.32,3.378,11.064,1.406,2.267.363,9.409.771,11.88,1.27,1.224,4.534.363,6.008.136a95.285,95.285,0,0,1,.771-9.545c.091-.93,1.043-14.827.272-16.528-1.587-3.491-10.293-10.18-11.472-11.449-1.088-1.134-4.738-4.9-6.144-4.9-1.043.68-.408,2.267-.181,2.9C201.343,36.893,207.442,40.339,209.483,42.289Z" transform="translate(-156.62 -29.307)" fill="#fff"/>
      <path id="Path_75" data-name="Path 75" d="M81.259,48.886c-.567.5-2.517,1.224-3.7,2.811-.453-.862.725-2.947,2.131-4.172A18.183,18.183,0,0,1,83.368,45.1C83.8,46.166,82.642,47.889,81.259,48.886Z" transform="translate(-62.222 -40.597)" fill="#fff"/>
      <path id="Path_76" data-name="Path 76" d="M66.249,60.144c-1.315,1.224-2.743,1.723-4.557,3.945a13.734,13.734,0,0,1-.227-6.643c.521-2.176,1.7-4.421,3.469-5.146a49.464,49.464,0,0,0-1,5.056c-.771,3.061-1.406,3.4-1.134,3.559.159.068,1.156-1.61,2.4-2.834,1.564-1.542,3.333-1.927,4.466-2.63A11.65,11.65,0,0,1,66.249,60.144Z" transform="translate(-49.615 -46.165)" fill="#fff"/>
      <path id="Path_77" data-name="Path 77" d="M47.946,91.231a16.272,16.272,0,0,1-2.108-7.754c-.181-2,1.02-6.62,2.381-7.278-.408,3.9.635,4.285.227,7.527,0,.181-.567,3.741-.453,3.718.363.113.023-3.106,6.257-7.414-1.27,2.313-.862,3.333-3.174,6.235A10.311,10.311,0,0,0,47.946,91.231Z" transform="translate(-37.752 -64.647)" fill="#fff"/>
      <path id="Path_78" data-name="Path 78" d="M42.011,125.41c-1.315,1.9-1.088,2.857-1.406,3.763-3.786-2.222-6.711-9.046-5.4-12.673.7,2.743,2.2,3.673,3.015,5.963,1.247,2.879,1.134,4.036,1.859,4.9a12.064,12.064,0,0,1,.952-5.464,12.7,12.7,0,0,1,2.244-3.6C43.96,120.808,43.462,122.871,42.011,125.41Z" transform="translate(-29.299 -95.81)" fill="#fff"/>
      <path id="Path_79" data-name="Path 79" d="M48.1,159.847a36.651,36.651,0,0,1-.748,6.053c-5.418-1.768-8.252-7.98-8.252-11.018,1.655,3.741,4.058,3.7,7.21,8.978-.068-1.292-.544-.5-.635-4.285.113-3.763,1-4.308,1.043-6.575C47.715,154.088,48.078,158.464,48.1,159.847Z" transform="translate(-32.555 -124.035)" fill="#fff"/>
      <path id="Path_80" data-name="Path 80" d="M60.521,197.408c.408,2.04.589,4.466.907,6.235-3.083-1.134-4.784-.68-7.55-2.539-1.7-.93-4.716-4.784-4.512-7.527,3.65,4.058,4.285,3.6,6.053,5.124,1.632,1.315,3.2,3.129,4.149,3.015.453-.068-2.7-3.469-2.335-10.316A19.126,19.126,0,0,1,60.521,197.408Z" transform="translate(-40.487 -153.729)" fill="#fff"/>
      <path id="Path_81" data-name="Path 81" d="M84.584,223.182c.952,1.36.725,1.814,3.174,4.625a15.4,15.4,0,0,1-6.575,1.2c-1.542-.091-6.869-1.383-8.683-5.1,3.151,1.678,3.65,1.27,7.459,2.086,2.947.635,5.078,1.723,5.917,1.655-.2-.431-2.517-1.383-4.1-3.378-1.587-2.131-1.247-4.557-2.653-6.325C80.072,217.65,83.745,221.459,84.584,223.182Z" transform="translate(-58.383 -174.243)" fill="#fff"/>
      <path id="Path_82" data-name="Path 82" d="M158.607,273.258l-.907-.453a20.065,20.065,0,0,1,15.734-6.507c9.93.544,9.25,2.857,14.578,2.517.589-.045-.453.725-.453.725s-3.106,2.222-11.63-.181C169.535,267.137,165.408,265.822,158.607,273.258Z" transform="translate(-124.267 -211.623)" fill="#fff"/>
      <path id="Path_83" data-name="Path 83" d="M130.267,273.258l.93-.453a19.871,19.871,0,0,0-15.689-6.507c-9.975.544-9.3,2.857-14.623,2.494-.589-.045.453.725.453.725s4.58,2.244,11.63-.181C119.362,267.137,123.51,265.822,130.267,273.258Z" transform="translate(-80.193 -211.623)" fill="#fff"/>
      <path id="Path_84" data-name="Path 84" d="M290.048,48.586c.567.5,2.517,1.224,3.7,2.811.453-.862-.725-2.947-2.131-4.172a17.059,17.059,0,0,0-3.7-2.426C287.509,45.866,288.665,47.611,290.048,48.586Z" transform="translate(-224.897 -40.365)" fill="#fff"/>
      <path id="Path_85" data-name="Path 85" d="M296.523,59.944c1.315,1.224,2.743,1.723,4.557,3.945a13.734,13.734,0,0,0,.227-6.643c-.521-2.176-1.7-4.421-3.469-5.146a49.455,49.455,0,0,1,1,5.056c.771,3.061,1.406,3.4,1.134,3.559-.181.068-1.156-1.61-2.4-2.811-1.564-1.542-3.333-1.927-4.466-2.63A11.7,11.7,0,0,0,296.523,59.944Z" transform="translate(-228.97 -46.01)" fill="#fff"/>
      <path id="Path_86" data-name="Path 86" d="M315,91.031a16.012,16.012,0,0,0,2.108-7.754c.181-2-1.02-6.62-2.381-7.278.408,3.9-.635,4.285-.227,7.527,0,.181.567,3.741.453,3.718-.363.113-.023-3.106-6.257-7.414,1.27,2.313.884,3.333,3.2,6.235C314.753,88.9,314.889,90.85,315,91.031Z" transform="translate(-241.033 -64.492)" fill="#fff"/>
      <path id="Path_87" data-name="Path 87" d="M320.105,125.21c1.315,1.9,1.088,2.857,1.406,3.763,3.786-2.222,6.711-9.046,5.4-12.673-.7,2.743-2.222,3.673-3.038,5.963-1.247,2.879-1.134,4.036-1.859,4.9a12.01,12.01,0,0,0-.952-5.464,12.7,12.7,0,0,0-2.244-3.6C318.155,120.608,318.632,122.648,320.105,125.21Z" transform="translate(-248.629 -95.655)" fill="#fff"/>
      <path id="Path_88" data-name="Path 88" d="M313,159.547a36.651,36.651,0,0,0,.748,6.053c5.418-1.768,8.252-7.98,8.252-11.018-1.655,3.741-4.058,3.7-7.21,8.978.068-1.292.544-.5.635-4.285-.113-3.763-1.02-4.308-1.043-6.575C313.363,153.811,313,158.187,313,159.547Z" transform="translate(-244.358 -123.803)" fill="#fff"/>
      <path id="Path_89" data-name="Path 89" d="M290.107,197.208c-.431,2.04-.589,4.466-.907,6.235,3.083-1.134,4.784-.68,7.55-2.539,1.7-.93,4.716-4.784,4.512-7.527-3.65,4.058-4.285,3.6-6.053,5.124-1.632,1.315-3.2,3.129-4.149,3.015-.453-.068,2.7-3.469,2.335-10.316A18.024,18.024,0,0,0,290.107,197.208Z" transform="translate(-225.954 -153.574)" fill="#fff"/>
      <path id="Path_90" data-name="Path 90" d="M255.1,222.89c-.952,1.36-.725,1.814-3.2,4.625a15.4,15.4,0,0,0,6.575,1.2c1.542-.091,6.869-1.383,8.683-5.1-3.151,1.678-3.65,1.292-7.459,2.086-2.947.635-5.078,1.746-5.917,1.655.2-.431,2.517-1.383,4.1-3.378,1.587-2.131,1.247-4.557,2.653-6.325C259.608,217.381,255.936,221.19,255.1,222.89Z" transform="translate(-197.11 -174.019)" fill="#fff"/>
    </g>
  </g>
</svg>
